# xmcd CD database file
#
# Track frame offsets:
#	180
#	16186
#	25354
#	54222
#	84604
#	110036
#	140116
#	170497
#	199556
#	218639
#	248764
#	277494
#	315477
#
# Disc length: 4276 seconds
#
# Revision: 1
# Processed by: cddbd v1.5.1PL0 Copyright (c) Steve Scherf et al.
# Submitted via: CDex 1.51
#
DISCID=b910b20d
DTITLE=Peter Erskine - The Drum Perspective
DYEAR=1998
DGENRE=Jazz
TTITLE0=Pedagogical
TTITLE1=But Is It Art?
TTITLE2=Straphangin'
TTITLE3=L.A. Stomp
TTITLE4=Know Where You Are
TTITLE5=Babe of the Day
TTITLE6=Not a Word
TTITLE7=Erskoman
TTITLE8=Crackdown
TTITLE9=Elvin's Mambo
TTITLE10=Not an Exit
TTITLE11=November
TTITLE12=Peter at age 9
EXTD=YEAR: 1998
EXTT0=
EXTT1=
EXTT2=
EXTT3=
EXTT4=
EXTT5=
EXTT6=
EXTT7=
EXTT8=
EXTT9=
EXTT10=
EXTT11=
EXTT12=
PLAYORDER=
